PathFileType	4	(X/Y/Z)	C:/Users/opensim2020/Desktop/walking_exp_matlab/subject06_walking12_straigt_04.trc	
DataRate	CameraRate	NumFrames	NumMarkers	Units	OrigDataRate	OrigDataStartFrame	OrigNumFrames	
100.00	100.00	7	48	mm	100.00	2901	181	
Frame#	Time	LFHD			RFHD			LBHD			RBHD			C7			T10			CLAV			STRN			RBAK			LSHO			LUPA			LELB			LFRM			LWRA			LWRB			LFIN			RSHO			RUPA			RELB			RFRM			RWRA			RWRB			RFIN			LASI			RASI			LPSI			RPSI			LTHI			LKNE			LTIB			LANK			LHEE			LTOE			RTHI			RKNE			RTIB			RANK			RHEE			RTOE			*39			*40			*41			*42			*43			*44			*45			*46			*47			
		X1	Y1	Z1	X2	Y2	Z2	X3	Y3	Z3	X4	Y4	Z4	X5	Y5	Z5	X6	Y6	Z6	X7	Y7	Z7	X8	Y8	Z8	X9	Y9	Z9	X10	Y10	Z10	X11	Y11	Z11	X12	Y12	Z12	X13	Y13	Z13	X14	Y14	Z14	X15	Y15	Z15	X16	Y16	Z16	X17	Y17	Z17	X18	Y18	Z18	X19	Y19	Z19	X20	Y20	Z20	X21	Y21	Z21	X22	Y22	Z22	X23	Y23	Z23	X24	Y24	Z24	X25	Y25	Z25	X26	Y26	Z26	X27	Y27	Z27	X28	Y28	Z28	X29	Y29	Z29	X30	Y30	Z30	X31	Y31	Z31	X32	Y32	Z32	X33	Y33	Z33	X34	Y34	Z34	X35	Y35	Z35	X36	Y36	Z36	X37	Y37	Z37	X38	Y38	Z38	X39	Y39	Z39	X40	Y40	Z40	X41	Y41	Z41	X42	Y42	Z42	X43	Y43	Z43	X44	Y44	Z44	X45	Y45	Z45	X46	Y46	Z46	X47	Y47	Z47	X48	Y48	Z48	

136	1.350	1511.40381	-281.17603	1652.83264	1380.15771	-271.24588	1637.26636	1523.49658	-148.59206	1596.73962	1394.80872	-140.19078	1587.19397	1467.38660	-143.38515	1437.13635	1455.69653	-115.20715	1107.33643	1462.32068	-254.22961	1360.88477	1472.90906	-296.93661	1185.98376	1394.22705	-71.68020	1265.17163	1624.81580	-203.79846	1395.77075	1707.50745	-242.61293	1203.26538	1728.72937	-274.53998	1096.80615	1741.55640	-392.95734	1007.27026	1685.53760	-512.16296	981.45697	1723.90784	-482.48260	930.17963	1717.89075	-570.75238	914.53992	1302.60437	-203.58186	1393.35913	1220.39502	-119.93183	1210.32654	1209.46985	-103.63217	1087.39014	1191.93823	-87.16104	967.77570	1217.15222	-112.30397	817.57825	1183.85181	-55.43187	833.05487	1179.63696	-69.90160	749.37158	1576.36682	-285.66895	945.36969	1354.76746	-299.63278	951.42505	1534.83521	-129.66409	976.91907	1366.43921	-148.04124	975.51984	1621.65979	-170.43770	640.41968	1594.82581	-132.31354	479.52911	1582.53552	-0.95521	254.85698	1533.57092	73.17549	99.96476	1490.95166	118.86279	100.63612	1523.99536	-56.23638	38.38715	1287.87976	-307.11078	624.01257	1320.06689	-353.54282	509.38126	1321.73669	-399.69073	253.56815	1363.86169	-464.27432	76.89388	1414.35291	-441.49500	43.61007	1357.16724	-622.84039	84.50487	1458.39966	-176.17166	1688.02991																								 
137	1.360	1510.29712	-290.87793	1652.36243	1379.08447	-280.99518	1636.77759	1522.38684	-158.37669	1595.98340	1393.78345	-150.00446	1586.39697	1466.18396	-153.67368	1436.28894	1454.95032	-126.90239	1106.52954	1461.21875	-264.69855	1360.39844	1471.89526	-308.25720	1185.69031	1393.29285	-82.61298	1264.25110	1623.78149	-214.00987	1395.20361	1706.01880	-252.37148	1202.42358	1727.11499	-283.57166	1095.83569	1739.94507	-402.35239	1007.60193	1684.63977	-522.29456	983.72919	1722.55115	-493.19528	931.86273	1716.74463	-581.79327	917.41376	1301.47949	-214.11403	1392.75879	1219.37720	-130.16316	1209.88977	1208.59351	-113.56272	1086.94519	1191.15601	-96.86319	967.38312	1216.66748	-121.62266	817.16168	1183.28149	-64.72060	832.71106	1179.40833	-78.92911	748.94312	1575.57764	-297.26279	944.47571	1353.79236	-311.79190	950.95172	1533.82800	-141.57605	976.25977	1365.63147	-160.22289	975.09918	1620.93750	-179.76889	640.07159	1594.47998	-140.15829	479.58029	1582.63428	-5.23625	256.91861	1534.23364	71.34948	103.02671	1491.54333	117.12646	104.53664	1524.12427	-56.81295	38.36720	1288.29407	-320.27313	624.37292	1321.06335	-366.81461	510.00214	1323.04712	-408.19431	251.99873	1366.05432	-467.50613	73.91650	1416.18457	-443.69412	41.21417	1359.88892	-625.53577	79.47527	1457.27307	-185.77980	1687.31799																								 
138	1.370	1509.20923	-300.54327	1651.99695	1377.95862	-290.79529	1636.31787	1521.22937	-168.14676	1595.20239	1392.56738	-159.90714	1585.54663	1465.02881	-163.84366	1435.47925	1453.99719	-138.78011	1105.72888	1459.92810	-275.29303	1359.93457	1470.73193	-319.67981	1185.34534	1392.38599	-93.63886	1263.43372	1622.42249	-224.40436	1394.39526	1704.51257	-262.15356	1201.56702	1725.40979	-292.45212	1094.87146	1738.88354	-411.83743	1007.66504	1683.73743	-532.13239	985.49536	1721.34802	-503.48120	933.03271	1715.64966	-592.26398	919.60956	1300.27026	-224.60687	1392.15088	1218.30432	-140.68291	1209.29590	1207.81030	-123.86678	1086.39038	1190.52502	-106.74426	966.88062	1216.24268	-130.98212	816.54608	1182.78027	-74.24122	832.18250	1179.15417	-88.16187	748.32477	1574.70935	-309.03253	943.69696	1352.83472	-324.33389	950.70660	1532.77161	-153.73758	975.78748	1364.69043	-172.87358	974.80206	1620.14478	-189.17332	639.82855	1594.07458	-148.28117	479.60547	1582.60168	-9.73793	259.15472	1534.91309	69.11845	106.32481	1492.16626	114.91005	108.74156	1524.12915	-57.17578	38.41179	1289.38440	-334.20761	625.05157	1322.73767	-380.05380	510.99701	1324.41467	-415.45276	250.04837	1367.79504	-469.30142	71.14400	1417.97852	-444.57031	38.66982	1362.74792	-626.79492	73.94979	1456.13049	-195.28804	1686.63135																								 
139	1.380	1508.07544	-310.19522	1651.65955	1376.78931	-300.50754	1636.00146	1519.93860	-177.98578	1594.43909	1391.28796	-169.76544	1584.80139	1463.76404	-174.08220	1434.68237	1453.00500	-151.14725	1104.88257	1458.58484	-286.06683	1359.63318	1469.48450	-331.31674	1185.22510	1391.44153	-104.74789	1262.47107	1621.24524	-234.70180	1393.92419	1702.96667	-271.89194	1200.67090	1723.70996	-301.22946	1093.84802	1737.47339	-420.87674	1007.38879	1682.82544	-541.60547	986.58643	1720.06824	-513.28204	933.75220	1714.59937	-602.23273	921.07648	1298.94275	-235.15057	1391.60327	1217.23010	-151.27762	1208.63647	1207.04199	-134.46704	1085.70178	1189.90222	-117.03980	966.16052	1216.10217	-140.55539	815.62988	1182.34082	-84.11627	831.62170	1178.90210	-97.80434	747.54535	1573.85339	-320.73993	943.47760	1351.93591	-337.04489	950.52325	1531.66443	-165.71469	975.62280	1363.14648	-185.54066	974.86133	1619.23291	-198.71977	639.58356	1593.52612	-156.83330	479.56726	1582.36218	-14.50422	261.54199	1535.07751	66.98663	109.85963	1492.61621	112.29313	113.20712	1524.09741	-57.50716	38.41504	1290.82422	-348.01151	625.66748	1325.07788	-393.23578	511.99399	1326.53845	-422.22018	248.59705	1369.73169	-471.86362	70.12446	1420.40686	-446.79840	40.75391	1363.94080	-630.18207	66.22124	1454.93103	-204.78998	1685.97791																								 
140	1.390	1506.88110	-319.83490	1652.00134	1375.50610	-310.26224	1636.29370	1518.58057	-187.96805	1594.05237	1390.08643	-179.79141	1584.34204	1462.27051	-184.28888	1434.27356	1451.92725	-163.87921	1104.26343	1457.23511	-296.91162	1359.84143	1468.22559	-342.98538	1185.59839	1390.37195	-115.80820	1261.36560	1619.97827	-245.09013	1393.38379	1701.41357	-281.54025	1199.69482	1722.00439	-309.91132	1092.75049	1736.15576	-429.75995	1006.88593	1681.92810	-550.77887	987.06818	1718.83252	-522.61127	933.88232	1713.62000	-611.74121	921.85590	1297.43469	-245.73843	1391.25122	1216.12756	-162.17149	1207.83337	1206.27881	-145.38640	1084.88879	1189.41272	-127.69553	965.36591	1216.05566	-150.50093	814.64911	1182.04846	-94.25549	830.93152	1178.76428	-107.70269	746.86633	1573.23535	-332.88312	943.05133	1351.22168	-349.79718	950.58374	1530.54187	-177.75275	975.62341	1361.66748	-198.26930	975.47076	1618.05896	-208.62137	639.30389	1592.46436	-165.91051	479.56497	1581.91724	-19.87043	264.17606	1535.54492	64.20963	113.75258	1493.15991	109.36366	118.22333	1524.05981	-58.01096	38.49810	1291.89026	-361.63742	626.74323	1326.44727	-405.29663	512.83868	1326.73462	-430.20209	248.91751	1368.13000	-478.52267	71.87681	1418.07581	-451.00052	42.93864	1363.35742	-635.56464	61.62824	1453.71594	-214.29773	1685.69629																								 
141	1.400	1505.63928	-329.31293	1653.20630	1374.19592	-320.04248	1637.40527	1517.25159	-197.81754	1594.43982	1388.70569	-189.79660	1584.56128	1460.81067	-194.71777	1434.77490	1451.37769	-176.29996	1104.02502	1455.82849	-307.49020	1360.69653	1467.06323	-354.08734	1186.33191	1389.20911	-126.90584	1260.43591	1619.09607	-255.14679	1393.35083	1699.92834	-290.99548	1198.79163	1720.44824	-318.53174	1091.72864	1734.69971	-438.25061	1006.07227	1680.96643	-559.59961	986.92664	1717.54297	-531.47028	933.48535	1712.76221	-620.69464	921.90076	1295.73779	-256.28333	1391.24963	1214.98132	-173.32184	1207.13599	1205.49683	-156.70825	1084.10852	1188.96423	-138.68813	964.56616	1215.93347	-160.88605	813.84778	1181.97681	-104.60127	830.22296	1178.62097	-117.77387	746.22668	1572.96887	-344.93060	942.78625	1350.83289	-362.68219	951.19458	1529.73242	-189.85922	976.14655	1360.65686	-210.94305	977.09106	1616.73828	-219.10283	639.15796	1591.17944	-175.91852	479.69135	1581.22754	-25.93795	267.09253	1535.99622	60.56099	118.31079	1493.38989	105.65491	124.01139	1523.83606	-58.57717	38.64969	1292.05420	-374.68387	628.97369	1325.10107	-415.85123	514.53326	1323.47705	-440.36020	251.29315	1366.62000	-483.91708	71.65954	1416.05725	-454.18628	44.29474	1362.39355	-639.81384	58.78976	1452.32239	-223.55881	1686.15442																								 
142	1.410	1504.28442	-338.98120	1654.80969	1372.90088	-329.75766	1638.94507	1516.07507	-207.54434	1595.50610	1387.35986	-199.80159	1585.52087	1459.45996	-205.26631	1435.98181	1450.91809	-188.49147	1104.44946	1454.39014	-318.06808	1362.03308	1465.96484	-365.62854	1187.71143	1387.89270	-137.91127	1260.22546	1618.24243	-265.39090	1393.69531	1698.45715	-300.22897	1198.17444	1718.90491	-327.04065	1090.91565	1733.22864	-446.50717	1005.09814	1679.97290	-568.00464	986.10699	1716.19324	-539.72791	932.55707	1711.92871	-628.93506	921.04108	1294.01880	-266.80014	1391.66724	1213.94531	-184.83600	1206.64038	1204.82446	-168.62689	1083.58752	1188.70557	-150.22418	963.95807	1215.80566	-171.90646	813.35083	1181.91711	-115.51176	829.82788	1178.63843	-128.21437	745.65466	1572.22559	-356.76871	943.48785	1350.57764	-375.73569	952.54010	1529.37781	-201.86073	977.01660	1360.37000	-223.36736	979.42419	1615.44287	-230.18819	639.39972	1589.98328	-187.30461	479.95413	1580.26550	-33.13298	270.38269	1535.34973	56.84720	123.58040	1492.87891	101.08622	130.50931	1523.43372	-59.22723	38.75021	1291.03040	-386.97272	631.89185	1322.55835	-426.18402	516.88513	1320.73682	-449.71094	253.51797	1365.20618	-486.48349	71.54287	1414.73413	-455.81946	45.31375	1361.25513	-641.76331	54.35278	1450.98230	-232.99440	1687.26416																								 
